<svg width="336" height="234" viewBox="0 0 336 234" fill="none" xmlns="http://www.w3.org/2000/svg">
<path d="M14.9663 89.8002C15.2876 109.563 22.7011 111.702 31.8051 109.641C42.2055 107.287 50.7417 99.9062 54.9489 90.1414L57.8504 83.4071C59.7794 78.93 59.8443 73.8729 58.0309 69.3481C56.2176 64.8233 52.6744 61.2016 48.181 59.2797H48.181C45.956 58.3281 43.5648 57.8224 41.1437 57.7915C38.7226 57.7607 36.3192 58.2052 34.0705 59.0999C31.8219 59.9945 29.7721 61.3216 28.0383 63.0055C26.3044 64.6894 24.9204 66.6971 23.9653 68.9139C14.6286 72.5682 12.7846 80.1336 14.9663 89.8002Z" fill="#2F2E41"/>
<path d="M73.5066 50.0243L76.3009 45.3131C76.6421 44.7378 76.8481 44.093 76.9035 43.427C76.9589 42.761 76.8623 42.0912 76.6207 41.4678C76.3792 40.8444 75.9992 40.2835 75.509 39.8274C75.0189 39.3712 74.4315 39.0315 73.7908 38.8338C73.1146 38.6252 72.3981 38.5806 71.7011 38.7038C71.004 38.8269 70.3466 39.1143 69.7837 39.5419C69.2207 39.9696 68.7685 40.5251 68.4647 41.1622C68.1609 41.7992 68.0143 42.4994 68.0372 43.2044L68.2014 48.2686L55.0693 84.1257L62.2305 85.6153L73.5066 50.0243Z" fill="#9F616A"/>
<path d="M4.41923 138.418L0.979774 142.685C0.55977 143.206 0.26363 143.815 0.113575 144.466C-0.0364808 145.117 -0.0365569 145.794 0.113351 146.445C0.263259 147.097 0.55926 147.706 0.979146 148.227C1.39903 148.748 1.9319 149.168 2.53778 149.454C3.17728 149.757 3.88007 149.903 4.58761 149.88C5.29515 149.857 5.98693 149.666 6.6053 149.322C7.22367 148.979 7.75071 148.493 8.14251 147.906C8.53431 147.318 8.77952 146.646 8.85769 145.945L9.41928 140.909L27.5445 107.282L20.6694 104.791L4.41923 138.418Z" fill="#9F616A"/>
<path d="M25.6699 173.913L26.1762 179.973L26.2949 181.386L59.9578 178.16C61.1182 178.03 62.2313 177.629 63.2067 176.989C64.1821 176.35 64.9923 175.49 65.5715 174.48C66.1506 173.469 66.4824 172.337 66.5397 171.175C66.5971 170.013 66.3785 168.854 65.9017 167.792L55.0453 144.571L51.2952 136.55L35.0451 132.813C21.6449 143.032 33.7013 154.31 48.8702 165.718C49.464 166.167 50.064 166.615 50.6702 167.063L25.6699 173.913Z" fill="#2F2E41"/>
<path d="M14.3266 194.895C14.7367 194.953 15.155 194.906 15.5414 194.757C15.9278 194.608 16.2693 194.363 16.5332 194.044L27.5445 180.763L26.9195 174.536L23.165 172.292C22.8578 172.108 22.5143 171.993 22.1581 171.955C21.802 171.917 21.4419 171.957 21.1027 172.072C20.7635 172.187 20.4535 172.373 20.1941 172.62C19.9348 172.866 19.7323 173.165 19.6008 173.497L12.4189 191.625C12.2848 191.963 12.2294 192.328 12.2568 192.691C12.2843 193.054 12.3939 193.406 12.5775 193.72C12.7611 194.035 13.0138 194.304 13.3167 194.508C13.6197 194.711 13.9649 194.844 14.3266 194.895Z" fill="#2F2E41"/>
<path opacity="0.2" d="M23.7949 172.668L24.4199 180.141L26.1762 179.973L58.0828 176.915C59.2432 176.785 60.3563 176.383 61.3317 175.744C62.3071 175.104 63.1173 174.244 63.6965 173.234C64.2756 172.224 64.6074 171.092 64.6647 169.93C64.7221 168.768 64.5035 167.609 64.0266 166.547L55.0453 146.513V144.571L51.2953 136.55L35.0451 132.813C21.6449 143.032 33.7013 154.31 48.8702 165.718L48.7952 165.818L23.7949 172.668Z" fill="black"/>
<path d="M11.2015 192.404C11.6117 192.462 12.03 192.415 12.4164 192.266C12.8028 192.117 13.1443 191.871 13.4082 191.553L24.4195 178.272L23.7945 172.045L20.04 169.801C19.7328 169.617 19.3893 169.502 19.0331 169.464C18.677 169.426 18.3169 169.466 17.9777 169.581C17.6385 169.695 17.3285 169.882 17.0691 170.128C16.8098 170.374 16.6073 170.674 16.4758 171.006L9.29393 189.134C9.1598 189.472 9.10438 189.837 9.13185 190.199C9.15931 190.562 9.26894 190.914 9.45251 191.229C9.63608 191.544 9.88881 191.813 10.1917 192.017C10.4947 192.22 10.8399 192.352 11.2015 192.404Z" fill="#2F2E41"/>
<path d="M22.5449 171.422L23.1699 178.895L56.8328 175.668C57.9931 175.538 59.1062 175.137 60.0816 174.498C61.0571 173.858 61.8674 172.999 62.4468 171.988C63.0261 170.978 63.3582 169.846 63.416 168.685C63.4737 167.523 63.2556 166.363 62.7793 165.301L53.7953 145.268V134.059L31.92 130.322C17.9926 140.942 31.5627 152.707 47.5452 164.572L22.5449 171.422Z" fill="#2F2E41"/>
<path d="M43.795 83.6183C48.9728 83.6183 53.1701 79.4363 53.1701 74.2774C53.1701 69.1186 48.9728 64.9365 43.795 64.9365C38.6173 64.9365 34.4199 69.1186 34.4199 74.2774C34.4199 79.4363 38.6173 83.6183 43.795 83.6183Z" fill="#9F616A"/>
<path d="M31.2949 89.8455L44.4201 98.5637L55.6702 96.0728L49.4201 89.8455V80.5046L39.42 79.8818C39.2101 83.6119 37.0648 87.0253 31.2949 89.8455Z" fill="#9F616A"/>
<path d="M29.4196 133.437L53.7949 136.55L59.4199 110.396C62.0331 103.453 60.5338 97.3194 55.6956 91.8422C55.5106 90.9204 55.0177 90.0883 54.2972 89.4814C53.5767 88.8745 52.6712 88.5286 51.7281 88.5001L49.4198 88.6003C49.6809 96.8592 43.5737 94.87 34.4196 87.9775L33.3143 88.3079C31.8853 88.7351 30.6585 89.6606 29.8583 90.9151C29.0581 92.1696 28.7381 93.6692 28.9567 95.1396L29.9646 101.918C30.392 104.606 31.056 107.25 31.9487 109.822C34.4478 117.263 33.5548 125.141 29.4196 133.437Z" fill="#E1F6F8"/>
<path d="M18.1699 105.414L29.42 109.15L34.4201 91.0909L32.7262 90.3238C31.3218 89.6878 29.7271 89.6079 28.2658 90.1004C26.8045 90.5929 25.586 91.6209 24.8575 92.9757L18.1699 105.414Z" fill="#E1F6F8"/>
<path d="M51.2949 88.6004L57.5451 95.4502L65.045 83.6184L55.6698 78.6367L51.2949 88.6004Z" fill="#E1F6F8"/>
<path d="M32.8574 71.4747C38.7487 73.6881 45.036 73.4586 51.6076 71.4747V64.002H32.8574V71.4747Z" fill="#2F2E41"/>
<path d="M325.252 199.751L318.788 202.435L275.7 143.941L244.461 203.508L236.382 201.898L260.081 119.792H287.549L325.252 199.751Z" fill="#2F2E41"/>
<path d="M333.923 213.397C333.565 213.494 333.191 213.52 332.823 213.473C332.454 213.426 332.099 213.306 331.777 213.122L318.147 205.302C317.779 205.091 317.464 204.799 317.228 204.447C316.992 204.096 316.84 203.695 316.785 203.275C316.729 202.856 316.771 202.429 316.907 202.029C317.044 201.628 317.271 201.264 317.571 200.965L318.789 199.751L325.252 199.215L335.133 208.666C335.492 209.009 335.754 209.442 335.89 209.919C336.027 210.396 336.035 210.901 335.912 211.382C335.789 211.863 335.54 212.303 335.191 212.657C334.841 213.011 334.404 213.266 333.923 213.397Z" fill="#2F2E41"/>
<path d="M228.249 215.543C228.607 215.641 228.982 215.667 229.35 215.619C229.718 215.572 230.074 215.453 230.395 215.268L244.026 207.449C244.394 207.238 244.708 206.945 244.944 206.594C245.18 206.242 245.332 205.841 245.388 205.422C245.444 205.002 245.402 204.576 245.265 204.175C245.129 203.775 244.902 203.411 244.602 203.112L243.383 201.898L236.92 201.361L227.04 210.812C226.68 211.156 226.419 211.588 226.282 212.066C226.145 212.543 226.138 213.048 226.261 213.529C226.384 214.01 226.633 214.45 226.982 214.804C227.331 215.158 227.769 215.413 228.249 215.543Z" fill="#2F2E41"/>
<path d="M241.767 34.466L239.074 36.0759L233.494 27.0402C233.151 26.4853 232.947 25.8564 232.9 25.2065C232.852 24.5566 232.962 23.9048 233.22 23.3062C233.478 22.7075 233.877 22.1794 234.383 21.7666C234.889 21.3537 235.487 21.0681 236.127 20.9338C236.696 20.8145 237.284 20.8177 237.852 20.9434C238.419 21.069 238.954 21.3141 239.418 21.6623C239.883 22.0105 240.268 22.4536 240.547 22.9621C240.825 23.4705 240.992 24.0324 241.035 24.6102L241.767 34.466Z" fill="#FFB9B9"/>
<path d="M316.368 104.813L317.485 101.889L327.479 105.552C328.093 105.776 328.643 106.145 329.084 106.627C329.525 107.108 329.843 107.688 330.012 108.317C330.18 108.947 330.195 109.608 330.053 110.244C329.912 110.88 329.619 111.473 329.199 111.973C328.826 112.417 328.362 112.777 327.838 113.028C327.314 113.279 326.742 113.415 326.161 113.428C325.579 113.441 325.002 113.33 324.467 113.102C323.933 112.874 323.453 112.535 323.061 112.107L316.368 104.813Z" fill="#FFB9B9"/>
<path d="M274.084 66.6647C278.546 66.6647 282.163 63.0607 282.163 58.615C282.163 54.1694 278.546 50.5654 274.084 50.5654C269.622 50.5654 266.005 54.1694 266.005 58.615C266.005 63.0607 269.622 66.6647 274.084 66.6647Z" fill="#FFB9B9"/>
<path d="M281.086 75.7871H269.775V63.4445L279.47 62.3711L281.086 75.7871Z" fill="#FFB9B9"/>
<path d="M289.165 123.012H258.465C259.547 105.945 260.405 89.4511 258.465 80.0803L260.25 71.5429C260.497 70.36 261.182 69.3132 262.169 68.6106C263.156 67.908 264.372 67.6012 265.575 67.751L269.776 68.2742C272.62 73.2571 276.058 73.209 280.009 68.8108H285.069C285.743 68.8108 286.411 68.9449 287.033 69.2051C287.655 69.4654 288.219 69.8467 288.691 70.3266C289.163 70.8065 289.535 71.3755 289.783 72.0002C290.032 72.6249 290.154 73.2928 290.14 73.9647C291.458 79.9778 291.897 86.1493 291.442 92.2874L289.165 123.012Z" fill="#3F3D56"/>
<path d="M237.459 34.4657L241.768 32.3193L264.928 70.4209L258.465 80.0803L237.459 34.4657Z" fill="#3F3D56"/>
<path d="M316.43 106.34L320.112 103.245L300.546 75.9278C298.632 73.2553 295.993 71.1815 292.938 69.9493C289.884 68.7172 286.54 68.3777 283.299 68.9706L282.682 69.0835L290.08 81.9838L299.825 89.3347L316.43 106.34Z" fill="#3F3D56"/>
<path d="M283.428 53.8632C283.428 53.8632 284.937 50.554 281.012 49.0498C281.012 49.0498 277.691 43.6349 271.048 47.2448C271.048 47.2448 266.519 49.0498 266.519 53.8632C266.519 58.6765 265.01 59.579 265.01 59.579C265.01 59.579 267.258 57.281 267.862 55.476C268.466 53.671 273.162 53.2615 274.974 55.0665C276.785 56.8715 281.314 56.5706 281.314 56.5706L281.012 63.1889C281.012 63.1889 282.522 59.2781 283.126 59.2781C283.73 59.2781 284.334 53.8632 283.428 53.8632Z" fill="#2F2E41"/>
<path d="M282.682 234C309.984 234 332.116 232.851 332.116 231.434C332.116 230.018 309.984 228.869 282.682 228.869C255.38 228.869 233.248 230.018 233.248 231.434C233.248 232.851 255.38 234 282.682 234Z" fill="#E6E6E6"/>
<path d="M35.8648 232.791C50.2957 232.791 61.9942 232.184 61.9942 231.435C61.9942 230.686 50.2957 230.079 35.8648 230.079C21.4339 230.079 9.73535 230.686 9.73535 231.435C9.73535 232.184 21.4339 232.791 35.8648 232.791Z" fill="#E6E6E6"/>
<path d="M235.501 45.1331L76.6526 59.3178C75.8726 59.3865 75.0971 59.1442 74.4962 58.644C73.8953 58.1438 73.5181 57.4265 73.4473 56.6495L69.9158 17.3897C69.8468 16.6126 70.09 15.8399 70.5921 15.2412C71.0941 14.6425 71.814 14.2667 72.5938 14.1961L231.443 0.0114621C232.222 -0.0572657 232.998 0.185054 233.599 0.685263C234.2 1.18547 234.577 1.90273 234.648 2.67969L238.179 41.9395C238.248 42.7166 238.005 43.4893 237.503 44.088C237.001 44.6867 236.281 45.0625 235.501 45.1331Z" fill="#E1F6F8"/>
<path d="M95.2149 47.2779C102.066 47.2779 107.619 41.7445 107.619 34.9187C107.619 28.0929 102.066 22.5596 95.2149 22.5596C88.3642 22.5596 82.8105 28.0929 82.8105 34.9187C82.8105 41.7445 88.3642 47.2779 95.2149 47.2779Z" fill="white"/>
<path d="M123.011 24.1642C122.465 24.2139 121.962 24.4772 121.611 24.8963C121.261 25.3153 121.091 25.8559 121.14 26.3993C121.189 26.9428 121.452 27.4447 121.872 27.795C122.292 28.1452 122.834 28.3151 123.38 28.2675L220.454 19.5991C220.725 19.5753 220.988 19.4986 221.229 19.3733C221.47 19.248 221.684 19.0767 221.858 18.869C222.032 18.6614 222.164 18.4215 222.245 18.1631C222.326 17.9048 222.356 17.633 222.332 17.3633C222.307 17.0936 222.23 16.8314 222.104 16.5915C221.978 16.3517 221.805 16.1389 221.597 15.9655C221.388 15.792 221.147 15.6613 220.888 15.5807C220.628 15.5001 220.355 15.4712 220.085 15.4958L123.011 24.1642Z" fill="white"/>
<path d="M124.118 36.4737C123.847 36.4974 123.584 36.574 123.343 36.6992C123.102 36.8245 122.888 36.9958 122.714 37.2035C122.539 37.4112 122.407 37.6511 122.326 37.9095C122.245 38.168 122.215 38.4398 122.24 38.7096C122.264 38.9794 122.341 39.2417 122.468 39.4816C122.594 39.7215 122.766 39.9343 122.975 40.1078C123.184 40.2812 123.425 40.4119 123.684 40.4924C123.944 40.573 124.217 40.6017 124.487 40.577L221.561 31.9086C221.832 31.8848 222.095 31.8081 222.336 31.6829C222.577 31.5576 222.791 31.3862 222.965 31.1786C223.14 30.9709 223.271 30.731 223.353 30.4727C223.434 30.2143 223.463 29.9425 223.439 29.6729C223.415 29.4032 223.337 29.1409 223.211 28.9011C223.085 28.6612 222.913 28.4485 222.704 28.275C222.496 28.1016 222.255 27.9708 221.995 27.8902C221.736 27.8097 221.463 27.7808 221.192 27.8054L124.118 36.4737Z" fill="white"/>
<path d="M95 49C102.732 49 109 42.732 109 35C109 27.268 102.732 21 95 21C87.268 21 81 27.268 81 35C81 42.732 87.268 49 95 49Z" fill="#FBD971"/>
<path d="M95 44.9997C90.5887 44.9997 87 41.411 87 36.9997C87 36.6317 87.2987 36.333 87.6667 36.333C88.0347 36.333 88.3333 36.6317 88.3333 36.9997C88.3333 40.6757 91.324 43.6663 95 43.6663C98.676 43.6663 101.667 40.6757 101.667 36.9997C101.667 36.6317 101.965 36.333 102.333 36.333C102.701 36.333 103 36.6317 103 36.9997C103 41.411 99.4113 44.9997 95 44.9997Z" fill="#F0C419"/>
<path d="M91.6665 32.333C91.2985 32.333 90.9998 32.0343 90.9998 31.6663C90.9998 30.5637 90.1025 29.6663 88.9998 29.6663C87.8972 29.6663 86.9998 30.5637 86.9998 31.6663C86.9998 32.0343 86.7012 32.333 86.3332 32.333C85.9652 32.333 85.6665 32.0343 85.6665 31.6663C85.6665 29.8283 87.1618 28.333 88.9998 28.333C90.8378 28.333 92.3332 29.8283 92.3332 31.6663C92.3332 32.0343 92.0345 32.333 91.6665 32.333Z" fill="#F29C1F"/>
<path d="M103.667 32.333C103.299 32.333 103 32.0343 103 31.6663C103 30.5637 102.103 29.6663 101 29.6663C99.8972 29.6663 98.9998 30.5637 98.9998 31.6663C98.9998 32.0343 98.7012 32.333 98.3332 32.333C97.9652 32.333 97.6665 32.0343 97.6665 31.6663C97.6665 29.8283 99.1618 28.333 101 28.333C102.838 28.333 104.333 29.8283 104.333 31.6663C104.333 32.0343 104.035 32.333 103.667 32.333Z" fill="#F29C1F"/>
</svg>
