<svg width="315" height="374" viewBox="0 0 315 374" fill="none" xmlns="http://www.w3.org/2000/svg">
<path d="M79.0559 103.545C98.3481 103.545 113.988 87.9493 113.988 68.7116C113.988 49.4734 98.3481 33.8779 79.0559 33.8779C59.7636 33.8779 44.124 49.4734 44.124 68.7116C44.124 87.9493 59.7636 103.545 79.0559 103.545Z" fill="#3F3D56"/>
<path d="M279.455 115.156C298.748 115.156 314.387 99.5607 314.387 80.3229C314.387 61.0847 298.748 45.4893 279.455 45.4893C260.163 45.4893 244.523 61.0847 244.523 80.3229C244.523 99.5607 260.163 115.156 279.455 115.156Z" fill="#3F3D56"/>
<path d="M280.068 44.2666C273.358 44.2667 266.79 46.1939 261.15 49.8177C255.509 53.4415 251.035 58.6085 248.262 64.7012C254.241 59.3895 261.87 56.2884 269.87 55.9173C277.869 55.5462 285.754 57.9277 292.202 62.6626C298.651 67.3981 303.272 74.1991 305.291 81.9266C307.31 89.6541 306.605 97.8394 303.294 105.11C308.583 100.415 312.316 94.2283 313.999 87.3692C315.682 80.5101 315.234 73.3032 312.714 66.7039C310.195 60.1048 305.724 54.425 299.894 50.4179C294.063 46.4107 287.148 44.2654 280.068 44.2666Z" fill="#6C63FF"/>
<path d="M78.4436 32.6563C85.1536 32.6564 91.7208 34.5835 97.3614 38.2073C103.002 41.8311 107.476 46.9982 110.249 53.0907C104.269 47.7791 96.6407 44.678 88.6413 44.307C80.6419 43.9359 72.7571 46.3173 66.3088 51.0524C59.86 55.7875 55.239 62.5888 53.2199 70.3163C51.2007 78.0438 51.906 86.229 55.2176 93.4994C49.928 88.8048 46.1944 82.618 44.5119 75.7588C42.8294 68.8997 43.2774 61.6929 45.7966 55.0937C48.3158 48.4945 52.7871 42.8147 58.6176 38.8075C64.4482 34.8003 71.3622 32.6551 78.4436 32.6563Z" fill="#6C63FF"/>
<path d="M180.175 242.267C180.19 260.056 174.912 277.448 165.011 292.245C155.109 307.041 141.029 318.576 124.551 325.39C108.073 332.203 89.9384 333.99 72.4424 330.523C54.9458 327.057 38.8739 318.493 26.2602 305.915C13.6465 293.336 5.05796 277.31 1.58141 259.863C-1.89513 242.416 -0.103437 224.333 6.7298 207.901C13.563 191.469 25.1306 177.429 39.9688 167.555C54.807 157.682 72.2488 152.419 90.0873 152.434C101.929 152.394 113.661 154.69 124.61 159.191C135.558 163.691 145.505 170.307 153.879 178.656C162.252 187.007 168.886 196.925 173.399 207.842C177.912 218.76 180.215 230.459 180.175 242.267Z" fill="#3F3D56"/>
<path d="M180.175 242.267C180.192 255.126 177.43 267.838 172.079 279.539C156.654 279.333 141.456 275.794 127.535 269.166C113.613 262.539 101.298 252.98 91.4383 241.149C81.5783 229.318 74.4087 215.495 70.4222 200.634C66.4362 185.773 65.729 170.227 68.3495 155.068C81.6267 151.79 95.4769 151.568 108.853 154.418C122.229 157.268 134.779 163.115 145.553 171.517C156.328 179.918 165.044 190.655 171.042 202.912C177.04 215.17 180.163 228.628 180.175 242.267Z" fill="#6C63FF"/>
<path d="M173.433 266.101C232.326 266.101 280.067 218.493 280.067 159.767C280.067 101.041 232.326 53.4336 173.433 53.4336C114.54 53.4336 66.7988 101.041 66.7988 159.767C66.7988 218.493 114.54 266.101 173.433 266.101Z" fill="#3F3D56"/>
<path d="M199.348 163.404C204.871 156.01 213.108 151.101 222.255 149.753C231.401 148.404 240.71 150.727 248.142 156.211C252.273 150.683 254.665 144.056 255.015 137.17C255.367 130.285 253.66 123.45 250.114 117.532C246.567 111.614 241.339 106.879 235.091 103.925C228.844 100.972 221.858 99.9335 215.019 100.942C208.18 101.95 201.794 104.959 196.671 109.589C191.547 114.218 187.917 120.26 186.239 126.948C184.561 133.636 184.911 140.67 187.244 147.16C189.578 153.65 193.79 159.303 199.348 163.404Z" fill="white"/>
<path d="M117.84 170.127C123.363 162.732 131.6 157.823 140.747 156.475C149.893 155.126 159.203 157.449 166.635 162.934C170.765 157.405 173.157 150.778 173.508 143.893C173.859 137.008 172.153 130.173 168.606 124.255C165.059 118.337 159.831 113.601 153.584 110.648C147.336 107.695 140.35 106.656 133.511 107.665C126.672 108.673 120.286 111.682 115.163 116.312C110.039 120.941 106.409 126.982 104.731 133.67C103.053 140.358 103.403 147.393 105.737 153.883C108.07 160.372 112.282 166.026 117.84 170.127Z" fill="white"/>
<path d="M140.953 148.156C148.06 148.156 153.822 142.41 153.822 135.323C153.822 128.235 148.06 122.489 140.953 122.489C133.845 122.489 128.083 128.235 128.083 135.323C128.083 142.41 133.845 148.156 140.953 148.156Z" fill="#3F3D56"/>
<path d="M224.299 138.379C231.407 138.379 237.169 132.633 237.169 125.545C237.169 118.458 231.407 112.712 224.299 112.712C217.192 112.712 211.43 118.458 211.43 125.545C211.43 132.633 217.192 138.379 224.299 138.379Z" fill="#3F3D56"/>
<path d="M181.4 170.156C185.123 170.156 188.142 167.147 188.142 163.434C188.142 159.721 185.123 156.712 181.4 156.712C177.677 156.712 174.659 159.721 174.659 163.434C174.659 167.147 177.677 170.156 181.4 170.156Z" fill="#FF6584"/>
<path d="M80.2818 353.715V324.155H70.4763V353.715C67.6089 354.727 65.1262 356.599 63.3705 359.076C61.6141 361.552 60.6713 364.511 60.6709 367.544V367.544H90.0872V367.544C90.0866 364.511 89.1441 361.552 87.3877 359.076C85.6319 356.599 83.1493 354.727 80.2818 353.715Z" fill="#3F3D56"/>
<path d="M116.44 353.715V324.155H106.635V353.715C103.767 354.727 101.284 356.599 99.5287 359.076C97.7723 361.552 96.8297 364.511 96.8291 367.544V367.544H126.245V367.544C126.245 364.511 125.302 361.552 123.546 359.076C121.79 356.599 119.307 354.727 116.44 353.715Z" fill="#3F3D56"/>
<path d="M129.837 63.6307C125.394 56.498 122.41 48.119 123.334 39.7729C124.259 31.4268 129.742 23.2827 137.814 20.8909C145.886 18.4991 155.885 23.4543 157.406 31.7131C165.49 17.7742 178.279 7.15355 193.489 1.74622C200.544 -0.732665 209.919 -1.2948 213.998 4.95717C216.017 8.05139 216.233 12.2583 218.937 14.7792C223.177 18.7309 229.975 15.9476 235.769 16.2854C243.916 16.7604 250.475 24.3425 251.501 32.416C252.527 40.4894 248.941 48.6028 243.648 54.7972C238.355 60.9916 231.47 65.5869 224.679 70.0999" fill="#3F3D56"/>
<path d="M193.123 188.047C193.562 187.584 194.015 187.136 194.488 186.708C194.698 186.52 194.911 186.334 195.126 186.153C195.261 186.039 195.397 185.927 195.535 185.817C195.772 185.627 195.848 185.58 195.56 185.793C196.601 185.016 197.699 184.315 198.843 183.697C199.37 183.415 199.906 183.151 200.451 182.905C200.579 182.847 200.709 182.792 200.837 182.734C200.259 182.991 200.712 182.788 200.861 182.728C201.188 182.597 201.518 182.472 201.85 182.354C203.082 181.916 204.342 181.563 205.622 181.298C206.213 181.175 206.806 181.08 207.401 180.985C207.802 180.922 206.897 181.042 207.3 180.999C207.477 180.981 207.653 180.958 207.829 180.94C208.182 180.903 208.535 180.873 208.889 180.849C210.163 180.762 211.442 180.757 212.717 180.835C213.354 180.874 213.988 180.938 214.622 181.013C213.983 180.938 214.715 181.031 214.939 181.067C215.289 181.124 215.636 181.188 215.983 181.258C217.229 181.508 218.456 181.843 219.656 182.26C219.955 182.365 220.252 182.474 220.547 182.589C220.711 182.653 220.874 182.719 221.037 182.785C220.954 182.752 220.5 182.547 220.961 182.755C221.537 183.016 222.108 183.285 222.668 183.581C223.814 184.199 224.914 184.898 225.958 185.673C226.276 185.906 225.601 185.377 225.902 185.632C226.037 185.746 226.177 185.854 226.313 185.967C226.531 186.148 226.745 186.333 226.955 186.523C227.495 187.007 228.011 187.516 228.509 188.043C228.964 188.524 229.401 189.02 229.82 189.532C229.815 189.526 230.293 190.117 230.039 189.798C229.825 189.531 230.127 189.915 230.175 189.979C230.429 190.318 230.675 190.662 230.914 191.011C231.693 192.153 232.397 193.344 233.021 194.577C233.317 195.16 233.597 195.752 233.861 196.351C233.919 196.483 234.12 196.968 233.902 196.439C233.961 196.583 234.02 196.726 234.078 196.869C234.222 197.229 234.361 197.591 234.496 197.955C235.461 200.628 236.201 203.376 236.709 206.172C236.842 206.881 236.965 207.593 237.076 208.308C237.125 208.626 237.173 208.945 237.219 209.264C237.217 209.255 237.323 210.042 237.268 209.618C237.219 209.241 237.304 209.903 237.312 209.974C237.499 211.462 237.646 212.955 237.765 214.45C237.997 217.383 238.122 220.323 238.212 223.263C238.439 230.722 238.632 238.182 238.843 245.641L240.128 291.33L241.413 337.019L241.572 342.691C241.572 343.421 241.863 344.12 242.38 344.636C242.897 345.151 243.599 345.441 244.33 345.441C245.061 345.441 245.763 345.151 246.28 344.636C246.797 344.12 247.088 343.421 247.088 342.691L245.767 295.742L244.456 249.107L243.795 225.632C243.618 219.347 243.364 213.068 242.394 206.845C240.608 195.385 235.417 183.471 224.32 178.268C213.956 173.408 201.13 174.535 192.05 181.602C191.044 182.382 190.1 183.236 189.223 184.158C188.706 184.673 188.415 185.373 188.415 186.102C188.415 186.831 188.706 187.531 189.223 188.047C189.74 188.563 190.442 188.852 191.173 188.852C191.905 188.852 192.606 188.563 193.123 188.047Z" fill="#6C63FF"/>
<path d="M213.882 274.656C213.069 274.657 212.291 274.979 211.716 275.552C211.142 276.125 210.819 276.901 210.817 277.712L216.945 370.56C216.941 370.965 217.018 371.366 217.17 371.74C217.323 372.114 217.548 372.455 217.833 372.743C218.118 373.031 218.456 373.26 218.83 373.416C219.203 373.573 219.605 373.654 220.01 373.656H270.263C271.076 373.655 271.854 373.333 272.429 372.76C273.003 372.187 273.326 371.41 273.327 370.601L279.457 277.671C279.447 276.868 279.12 276.1 278.545 275.536C277.972 274.971 277.198 274.655 276.391 274.656H213.882Z" fill="#E6E6E6"/>
<path d="M218.733 279.239C218.313 279.239 217.898 279.325 217.513 279.492C217.128 279.658 216.782 279.902 216.495 280.207C216.208 280.513 215.988 280.874 215.847 281.268C215.706 281.662 215.648 282.081 215.676 282.499L221.31 366.221C221.364 366.994 221.71 367.717 222.277 368.246C222.844 368.775 223.591 369.07 224.368 369.073H265.905C266.682 369.07 267.429 368.775 267.996 368.246C268.563 367.717 268.908 366.994 268.962 366.221L274.597 282.499C274.625 282.081 274.567 281.662 274.426 281.268C274.285 280.874 274.064 280.513 273.778 280.207C273.491 279.902 273.145 279.658 272.76 279.492C272.375 279.325 271.96 279.239 271.54 279.239H218.733Z" fill="#6C63FF"/>
<path d="M237.169 293.601C236.844 293.601 236.532 293.73 236.303 293.959C236.073 294.188 235.944 294.498 235.943 294.823V301.545C235.944 301.869 236.073 302.179 236.303 302.409C236.532 302.638 236.844 302.767 237.169 302.767H247.587C247.912 302.767 248.224 302.638 248.453 302.409C248.683 302.179 248.812 301.869 248.813 301.545V294.823C248.812 294.498 248.683 294.188 248.453 293.959C248.224 293.73 247.912 293.601 247.587 293.601H237.169Z" fill="#E6E6E6"/>
<path d="M248.813 311.322C248.488 311.322 248.176 311.451 247.947 311.68C247.717 311.91 247.588 312.22 247.587 312.544V319.267C247.588 319.591 247.717 319.901 247.947 320.13C248.176 320.359 248.488 320.488 248.813 320.489H259.231C259.556 320.488 259.868 320.359 260.097 320.13C260.327 319.901 260.456 319.591 260.457 319.267V312.544C260.456 312.22 260.327 311.91 260.097 311.68C259.868 311.451 259.556 311.322 259.231 311.322H248.813Z" fill="#E6E6E6"/>
<path d="M237.782 325.989C237.458 325.989 237.146 326.118 236.916 326.347C236.687 326.577 236.557 326.887 236.557 327.211V333.934C236.557 334.258 236.687 334.568 236.916 334.797C237.146 335.026 237.458 335.155 237.782 335.156H248.201C248.525 335.155 248.837 335.026 249.067 334.797C249.296 334.568 249.426 334.258 249.426 333.934V327.211C249.426 326.887 249.296 326.577 249.067 326.347C248.837 326.118 248.525 325.989 248.201 325.989H237.782Z" fill="#E6E6E6"/>
<path d="M39.8526 290.642C43.0415 291.697 45.2874 294.402 47.156 297.054C49.0822 299.788 50.8477 302.757 53.4802 304.892C54.5857 305.85 55.8829 306.563 57.2858 306.984C58.6887 307.404 60.1652 307.523 61.6172 307.331C64.5037 306.898 66.9508 304.885 67.3896 301.918C67.9675 298.01 65.225 294.392 62.8184 291.612L62.1688 293.177C66.0027 293.589 69.3359 295.769 72.8463 297.171C76.2102 298.516 80.1887 299.249 83.5489 297.497C86.1271 296.152 87.7346 293.462 88.2794 290.674C88.8365 287.632 88.3708 284.491 86.9533 281.741C85.165 278.094 82.2313 275.146 79.3865 272.308L78.4918 273.84C82.7222 274.473 87.4386 275.064 91.1089 272.353C92.5767 271.322 93.624 269.798 94.0579 268.06C94.4324 266.14 94.1137 264.149 93.1589 262.441C91.229 258.693 87.5863 256.05 84.3205 253.537C76.7017 247.663 68.4467 242.659 59.7101 238.619C58.644 238.125 57.7091 239.705 58.7822 240.202C66.2668 243.668 73.4021 247.838 80.0913 252.657C83.3093 254.978 86.71 257.37 89.3918 260.313C91.6685 262.812 93.7417 266.634 91.2554 269.723C88.3309 273.356 83.0384 272.68 78.9808 272.072C78.7865 272.025 78.5825 272.042 78.3986 272.12C78.2148 272.198 78.0609 272.333 77.9604 272.506C77.8599 272.678 77.8183 272.878 77.8409 273.076C77.8636 273.274 77.9494 273.459 78.0861 273.604C82.3269 277.835 87.3632 282.914 86.6254 289.425C86.3459 291.894 85.1717 294.414 82.9686 295.72C79.9742 297.494 76.2292 296.581 73.2134 295.354C69.5517 293.864 66.1786 291.774 62.1688 291.344C61.3047 291.251 61.0541 292.372 61.5185 292.908C63.4637 295.156 65.798 298.081 65.6252 301.233C65.4806 303.871 63.1744 305.448 60.7013 305.598C54.4107 305.977 51.2347 299.446 48.0453 295.163C46.0269 292.453 43.6314 289.963 40.3413 288.874C39.2157 288.502 38.7331 290.272 39.8526 290.642Z" fill="#6C63FF"/>
</svg>
