<svg height="512pt" viewBox="0 0 512 512" width="512pt" xmlns="http://www.w3.org/2000/svg"><path d="m512 256c0 141.386719-114.613281 256-256 256s-256-114.613281-256-256 114.613281-256 256-256 256 114.613281 256 256zm0 0" fill="#4bb9ec"/><path d="m336.617188 81.117188-38.179688 38.183593 36.164062 36.164063-231.40625 231.40625 123.445313 123.441406c9.636719 1.101562 19.429687 1.6875 29.359375 1.6875 141.21875 0 255.726562-114.351562 255.992188-255.507812zm0 0" fill="#0095ff"/><path d="m157.464844 242.359375-21.277344 17.917969-33.070312-17.917969 36.429687-53.746094 17.917969 17.914063zm0 0" fill="#47568c"/><path d="m354.535156 242.359375 21.277344 17.917969 33.070312-17.917969-36.429687-53.746094-17.917969 17.914063zm0 0" fill="#2c3b73"/><path d="m336.621094 81.117188v98.539062h-161.242188v-80.621094h75.78125l4.839844-7.167968 7.167969-10.75zm0 0" fill="#ffda2d"/><path d="m336.621094 81.117188v98.539062h-80.621094v-87.789062l7.167969-10.75zm0 0" fill="#fdbf00"/><path d="m354.535156 116.949219v98.539062h-197.070312v-80.621093h111.613281l12.003906-17.917969zm0 0" fill="#fdbf00"/><path d="m354.535156 116.949219v98.539062h-98.535156v-80.621093h13.078125l12.003906-17.917969zm0 0" fill="#ff9100"/><path d="m372.453125 152.78125v134.367188h-232.90625v-116.449219h147.445313l12.003906-17.917969zm0 0" fill="#ffda2d"/><path d="m372.453125 152.78125v134.367188h-116.453125v-116.449219h30.992188l12.003906-17.917969zm0 0" fill="#fdbf00"/><path d="m408.882812 242.359375v144.523437h-305.765624v-144.523437h117.589843l5.910157 17.917969h58.765624l5.910157-17.917969zm0 0" fill="#61729b"/><path d="m408.882812 242.359375v144.523437h-152.882812v-126.605468h29.382812l5.910157-17.917969zm0 0" fill="#47568c"/><path d="m211.210938 296.109375h89.578124v17.914063h-89.578124zm0 0" fill="#ffda2d"/><path d="m256 296.109375h44.789062v17.914063h-44.789062zm0 0" fill="#fdbf00"/></svg>