<svg width="96" height="96" viewBox="0 0 96 96" fill="none" xmlns="http://www.w3.org/2000/svg">
<path d="M96 48C96 74.51 74.51 96 48 96C21.49 96 0 74.51 0 48C0 21.49 21.49 0 48 0C74.51 0 96 21.49 96 48Z" fill="#0047FF"/>
<path d="M63.1152 15.2095L55.9565 22.3689L62.7373 29.1497L19.3486 72.5383L42.4946 95.6836C44.3015 95.8901 46.1377 96 47.9995 96C74.478 96 95.9482 74.5591 95.998 48.0923L63.1152 15.2095Z" fill="#0643E3"/>
<path d="M29.5251 45.4424L25.5356 48.802L19.335 45.4424L26.1655 35.365L29.5251 38.7239V45.4424Z" fill="#47568C"/>
<path d="M66.4756 45.4424L70.4651 48.802L76.6658 45.4424L69.8352 35.365L66.4756 38.7239V45.4424Z" fill="#2C3B73"/>
<path d="M63.1167 15.2095V33.6856H32.8838V18.5691H47.0928L48.0002 17.2251L49.3442 15.2095H63.1167Z" fill="#FFDA2D"/>
<path d="M63.1165 15.2095V33.6856H48V17.2251L49.344 15.2095H63.1165Z" fill="#FDBF00"/>
<path d="M66.4751 21.928V40.4041H29.5244V25.2876H50.4519L52.7026 21.928H66.4751Z" fill="#FDBF00"/>
<path d="M66.4753 21.928V40.4041H48V25.2876H50.4521L52.7029 21.928H66.4753Z" fill="#FF9100"/>
<path d="M69.835 28.6465V53.8403H26.165V32.0061H53.811L56.0618 28.6465H69.835Z" fill="#FFDA2D"/>
<path d="M69.835 28.6465V53.8403H48V32.0061H53.811L56.0618 28.6465H69.835Z" fill="#FDBF00"/>
<path d="M76.666 45.4424V72.5405H19.335V45.4424H41.3831L42.4912 48.802H53.5098L54.6179 45.4424H76.666Z" fill="#61729B"/>
<path d="M76.6655 45.4424V72.5405H48V48.802H53.5093L54.6174 45.4424H76.6655Z" fill="#47568C"/>
<path d="M39.6025 55.5205H56.3984V58.8794H39.6025V55.5205Z" fill="#FFDA2D"/>
<path d="M48 55.5205H56.3979V58.8794H48V55.5205Z" fill="#FDBF00"/>
</svg>
