<svg width="96" height="96" viewBox="0 0 96 96" fill="none" xmlns="http://www.w3.org/2000/svg">
<path d="M48 96C74.5097 96 96 74.5097 96 48C96 21.4903 74.5097 0 48 0C21.4903 0 0 21.4903 0 48C0 74.5097 21.4903 96 48 96Z" fill="#00DF76"/>
<path d="M35.3006 16.781V24.5668C35.3006 27.1369 33.184 29.2534 30.614 29.2534H22.8281V74.4566C22.8281 77.0267 24.9447 79.1432 27.5147 79.1432H68.4848C71.0549 79.1432 73.1714 77.0267 73.1714 74.4566V21.4676C73.1714 18.8975 71.0549 16.781 68.4848 16.781H35.3006Z" fill="white"/>
<path d="M35.3006 16.781L22.8281 29.329H30.614C33.184 29.329 35.3006 27.2125 35.3006 24.6424V16.781Z" fill="#E6E9EE"/>
<path d="M47.9496 60.8992C56.7583 60.8992 63.8992 53.7583 63.8992 44.9496C63.8992 36.1409 56.7583 29 47.9496 29C39.1409 29 32 36.1409 32 44.9496C32 53.7583 39.1409 60.8992 47.9496 60.8992Z" fill="#00DF76"/>
<path d="M31 66.756V73.03C31 73.4079 31.3024 73.7859 31.7559 73.7859H38.0299C38.4079 73.7859 38.7858 73.4835 38.7858 73.03V66.756C38.7858 66.378 38.4835 66.0001 38.0299 66.0001H31.7559C31.378 66.0001 31 66.378 31 66.756ZM37.274 67.5119V72.2741H32.5118V67.5119H37.274Z" fill="#84DBFF"/>
<path d="M44.1523 66.756V73.03C44.1523 73.4079 44.4547 73.7859 44.9082 73.7859H51.1823C51.5602 73.7859 51.9382 73.4835 51.9382 73.03V66.756C51.9382 66.378 51.6358 66.0001 51.1823 66.0001H44.9082C44.5303 66.0001 44.1523 66.378 44.1523 66.756ZM50.4264 67.5119V72.2741H45.6642V67.5119H50.4264Z" fill="#84DBFF"/>
<path d="M57.3057 66.756V73.03C57.3057 73.4079 57.608 73.7859 58.0616 73.7859H64.3356C64.7135 73.7859 65.0915 73.4835 65.0915 73.03V66.756C65.0915 66.378 64.7891 66.0001 64.3356 66.0001H58.0616C57.6836 66.0001 57.3057 66.378 57.3057 66.756ZM63.5797 67.5119V72.2741H58.8175V67.5119H63.5797Z" fill="#84DBFF"/>
<path d="M50.0156 56.0185C50.0153 57.1334 49.1145 58.0342 47.9997 58.0344C47.4437 58.0345 46.9391 57.8092 46.574 57.444C46.209 57.0791 45.9838 56.5745 45.9838 56.0186L45.9842 47.4509L37.4165 47.4512C36.8605 47.4512 36.3559 47.226 35.991 46.8611C35.6258 46.4959 35.4006 45.9913 35.4006 45.4353C35.4009 44.3205 36.3017 43.4197 37.4165 43.4194L45.9842 43.4196L45.9841 34.8519C45.9843 33.737 46.8851 32.8362 48 32.8359C49.1148 32.8362 50.0156 33.737 50.0159 34.8518L50.0155 43.4195L58.5832 43.4192C59.6981 43.4194 60.5988 44.3202 60.5991 45.435C60.5988 46.5499 59.698 47.4507 58.5832 47.451L50.0155 47.4508L50.0156 56.0185Z" fill="#FAFAFA"/>
<path d="M48.065 0C48.0433 0 48.0218 0.000749908 48 0.000749908V95.9992C48.0218 95.9992 48.0433 96 48.065 96C74.5388 96 96 74.5097 96 47.9999C96 21.4901 74.5388 0 48.065 0Z" fill="black" fill-opacity="0.1"/>
</svg>
