<svg width="40" height="40" viewBox="0 0 40 40" fill="none" xmlns="http://www.w3.org/2000/svg">
<path d="M20 40C31.0457 40 40 31.0457 40 20C40 8.95431 31.0457 0 20 0C8.9543 0 0 8.95431 0 20C0 31.0457 8.9543 40 20 40Z" fill="#F44336"/>
<path d="M31.7611 27.0827C32.7463 28.0582 32.7463 29.6342 31.7611 30.6097C31.2697 31.096 30.6246 31.3404 29.9791 31.3404C29.334 31.3404 28.6889 31.096 28.1975 30.6097L20.625 23.1146L13.0525 30.6097C12.5611 31.096 11.916 31.3404 11.2709 31.3404C10.6254 31.3404 9.98029 31.096 9.48886 30.6097C8.50371 29.6342 8.50371 28.0582 9.48886 27.0827L17.0618 19.5881L9.48886 12.0934C8.50371 11.118 8.50371 9.54195 9.48886 8.56647C10.4745 7.59145 12.0669 7.59145 13.0525 8.56647L20.625 16.0616L28.1975 8.56647C29.1831 7.59145 30.7755 7.59145 31.7611 8.56647C32.7463 9.54195 32.7463 11.118 31.7611 12.0934L24.1882 19.5881L31.7611 27.0827Z" fill="#FAFAFA"/>
<path d="M31.7611 27.0827C32.7463 28.0582 32.7463 29.6342 31.7611 30.6097C31.2697 31.096 30.6246 31.3404 29.9791 31.3404C29.334 31.3404 28.6889 31.096 28.1975 30.6097L20.625 23.1146L13.0525 30.6097C12.5611 31.096 11.916 31.3404 11.2709 31.3404C10.6254 31.3404 9.98029 31.096 9.48886 30.6097C8.50371 29.6342 8.50371 28.0582 9.48886 27.0827L17.0618 19.5881L9.48886 12.0934C8.50371 11.118 8.50371 9.54195 9.48886 8.56647C10.4745 7.59145 12.0669 7.59145 13.0525 8.56647L20.625 16.0616L28.1975 8.56647C29.1831 7.59145 30.7755 7.59145 31.7611 8.56647C32.7463 9.54195 32.7463 11.118 31.7611 12.0934L24.1882 19.5881L31.7611 27.0827Z" fill="#FAFAFA"/>
<path d="M31.7611 27.0827C32.7463 28.0582 32.7463 29.6342 31.7611 30.6097C31.2697 31.096 30.6246 31.3404 29.9791 31.3404C29.334 31.3404 28.6889 31.096 28.1975 30.6097L20.625 23.1146L13.0525 30.6097C12.5611 31.096 11.916 31.3404 11.2709 31.3404C10.6254 31.3404 9.98029 31.096 9.48886 30.6097C8.50371 29.6342 8.50371 28.0582 9.48886 27.0827L17.0618 19.5881L9.48886 12.0934C8.50371 11.118 8.50371 9.54195 9.48886 8.56647C10.4745 7.59145 12.0669 7.59145 13.0525 8.56647L20.625 16.0616L28.1975 8.56647C29.1831 7.59145 30.7755 7.59145 31.7611 8.56647C32.7463 9.54195 32.7463 11.118 31.7611 12.0934L24.1882 19.5881L31.7611 27.0827Z" fill="#FAFAFA"/>
</svg>
