<svg width="96" height="97" viewBox="0 0 96 97" fill="none" xmlns="http://www.w3.org/2000/svg">
<g clip-path="url(#clip0)">
<path d="M48 96.9199C74.5097 96.9199 96 75.4296 96 48.9199C96 22.4103 74.5097 0.919922 48 0.919922C21.4903 0.919922 0 22.4103 0 48.9199C0 75.4296 21.4903 96.9199 48 96.9199Z" fill="#0047FF"/>
<path d="M35.3006 17.7012V25.487C35.3006 28.0571 33.184 30.1736 30.614 30.1736H22.8281V75.3768C22.8281 77.9468 24.9447 80.0634 27.5147 80.0634H68.4848C71.0549 80.0634 73.1714 77.9468 73.1714 75.3768V22.3878C73.1714 19.8177 71.0549 17.7012 68.4848 17.7012H35.3006Z" fill="white"/>
<path d="M35.3006 17.7012L22.8281 30.2492H30.614C33.184 30.2492 35.3006 28.1327 35.3006 25.5626V17.7012Z" fill="#E6E9EE"/>
<path d="M47.9496 61.8192C56.7583 61.8192 63.8992 54.6783 63.8992 45.8695C63.8992 37.0608 56.7583 29.9199 47.9496 29.9199C39.1409 29.9199 32 37.0608 32 45.8695C32 54.6783 39.1409 61.8192 47.9496 61.8192Z" fill="#0047FF"/>
<path d="M40.6521 51.331L40.0001 53.5646L42.2466 52.9255L42.48 51.8755L41.4883 50.8838L40.6521 51.331Z" fill="#444444"/>
<path d="M41.4882 50.8838L40.6521 51.331L40.0001 53.5646L42.0911 51.4866L41.4882 50.8838Z" fill="#5A5A5A"/>
<path d="M41.6178 47.4094C41.5112 47.8935 40.7972 50.7391 40.652 51.3309L42.2466 52.9254C43.4787 52.6232 45.818 52.0333 46.1616 51.9531L46.0968 51.0716L44.3013 49.2762L42.2725 47.2344L41.6178 47.4094Z" fill="#FFC473"/>
<path d="M42.0325 46.9944L41.6176 47.4093L46.1614 51.953L53.0516 45.0629L53.0581 43.773L49.6746 40.3894L48.5143 40.5256L42.0325 46.9944Z" fill="#FF9F00"/>
<path d="M42.2725 47.2341L41.6178 47.4092C41.5111 47.8934 40.7971 50.739 40.652 51.3307L41.4493 52.128L44.3013 49.276L42.2725 47.2341Z" fill="#FFD396"/>
<path d="M42.0327 46.9944L41.6179 47.4093L43.893 49.6844L51.4314 42.146L49.6748 40.3894L48.5145 40.5256L42.0327 46.9944Z" fill="#FDBF00"/>
<path d="M53.3759 40.2015L55.6445 42.4702L53.0518 45.063L48.5145 40.5256L51.1072 37.9199L53.3759 40.2015Z" fill="#444444"/>
<path d="M48.5146 40.5256L50.7832 42.7943L53.376 40.2015L51.1073 37.9199L48.5146 40.5256Z" fill="#5A5A5A"/>
<path d="M48.065 0.919922C48.0433 0.919922 48.0218 0.920672 48 0.920672V96.9191C48.0218 96.9191 48.0433 96.9199 48.065 96.9199C74.5388 96.9199 96 75.4296 96 48.9198C96 22.41 74.5388 0.919922 48.065 0.919922Z" fill="black" fill-opacity="0.1"/>
<path d="M31 67.6759V73.9499C31 74.3279 31.3024 74.7058 31.7559 74.7058H38.0299C38.4079 74.7058 38.7858 74.4034 38.7858 73.9499V67.6759C38.7858 67.2979 38.4835 66.92 38.0299 66.92H31.7559C31.378 66.92 31 67.2979 31 67.6759ZM37.274 68.4318V73.194H32.5118V68.4318H37.274Z" fill="#84DBFF"/>
<path d="M44.1528 67.6759V73.9499C44.1528 74.3279 44.4552 74.7058 44.9087 74.7058H51.1828C51.5607 74.7058 51.9387 74.4034 51.9387 73.9499V67.6759C51.9387 67.2979 51.6363 66.92 51.1828 66.92H44.9087C44.5308 66.92 44.1528 67.2979 44.1528 67.6759ZM50.4269 68.4318V73.194H45.6646V68.4318H50.4269Z" fill="#84DBFF"/>
<path d="M57.3054 67.6759V73.9499C57.3054 74.3279 57.6078 74.7058 58.0613 74.7058H64.3353C64.7133 74.7058 65.0912 74.4034 65.0912 73.9499V67.6759C65.0912 67.2979 64.7889 66.92 64.3353 66.92H58.0613C57.6834 66.92 57.3054 67.2979 57.3054 67.6759ZM63.5794 68.4318V73.194H58.8172V68.4318H63.5794Z" fill="#84DBFF"/>
</g>
<defs>
<clipPath id="clip0">
<rect width="96" height="96" fill="white" transform="translate(0 0.919922)"/>
</clipPath>
</defs>
</svg>
