<svg width="96" height="96" viewBox="0 0 96 96" fill="none" xmlns="http://www.w3.org/2000/svg">
<path d="M48 96C74.5097 96 96 74.5097 96 48C96 21.4903 74.5097 0 48 0C21.4903 0 0 21.4903 0 48C0 74.5097 21.4903 96 48 96Z" fill="#FFD05B"/>
<path d="M35.3006 16.7811V24.567C35.3006 27.137 33.184 29.2536 30.614 29.2536H22.8281V74.4567C22.8281 77.0268 24.9447 79.1433 27.5147 79.1433H68.4848C71.0549 79.1433 73.1714 77.0268 73.1714 74.4567V21.4677C73.1714 18.8977 71.0549 16.7811 68.4848 16.7811H35.3006Z" fill="white"/>
<path d="M35.3006 16.7811L22.8281 29.3292H30.614C33.184 29.3292 35.3006 27.2126 35.3006 24.6425V16.7811Z" fill="#E6E9EE"/>
<path d="M47.9496 60.8992C56.7583 60.8992 63.8992 53.7583 63.8992 44.9496C63.8992 36.1409 56.7583 29 47.9496 29C39.1409 29 32 36.1409 32 44.9496C32 53.7583 39.1409 60.8992 47.9496 60.8992Z" fill="#FFD05B"/>
<path d="M48.065 0C48.0433 0 48.0218 0.000749908 48 0.000749908V95.9992C48.0218 95.9992 48.0433 96 48.065 96C74.5388 96 96 74.5097 96 47.9999C96 21.4901 74.5388 0 48.065 0Z" fill="black" fill-opacity="0.1"/>
<path d="M31 66.7559V73.0299C31 73.4079 31.3024 73.7858 31.7559 73.7858H38.0299C38.4079 73.7858 38.7858 73.4835 38.7858 73.0299V66.7559C38.7858 66.378 38.4835 66 38.0299 66H31.7559C31.378 66 31 66.378 31 66.7559ZM37.274 67.5118V72.274H32.5118V67.5118H37.274Z" fill="#84DBFF"/>
<path d="M44.1523 66.7559V73.0299C44.1523 73.4079 44.4547 73.7858 44.9082 73.7858H51.1823C51.5602 73.7858 51.9382 73.4835 51.9382 73.0299V66.7559C51.9382 66.378 51.6358 66 51.1823 66H44.9082C44.5303 66 44.1523 66.378 44.1523 66.7559ZM50.4264 67.5118V72.274H45.6642V67.5118H50.4264Z" fill="#84DBFF"/>
<path d="M57.3057 66.7559V73.0299C57.3057 73.4079 57.608 73.7858 58.0616 73.7858H64.3356C64.7135 73.7858 65.0915 73.4835 65.0915 73.0299V66.7559C65.0915 66.378 64.7891 66 64.3356 66H58.0616C57.6836 66 57.3057 66.378 57.3057 66.7559ZM63.5797 67.5118V72.274H58.8175V67.5118H63.5797Z" fill="#84DBFF"/>
<path d="M57.0003 36.3333H54.667V35.3333C54.667 35.149 54.518 35 54.3337 35H52.0003C51.816 35 51.667 35.149 51.667 35.3333V36.3333H44.3337V35.3333C44.3337 35.149 44.1847 35 44.0003 35H41.667C41.4827 35 41.3337 35.149 41.3337 35.3333V36.3333H39.0003C38.816 36.3333 38.667 36.4823 38.667 36.6667V40.3333V54.6667C38.667 54.851 38.816 55 39.0003 55H57.0003C57.1847 55 57.3337 54.851 57.3337 54.6667V40.3333V36.6667C57.3337 36.4823 57.1847 36.3333 57.0003 36.3333ZM52.3337 35.6667H54.0003V36.6667V37.6667H52.3337V36.6667V35.6667ZM42.0003 35.6667H43.667V36.6667V37.6667H42.0003V36.6667V35.6667ZM39.3337 37H41.3337V38C41.3337 38.1843 41.4827 38.3333 41.667 38.3333H44.0003C44.1847 38.3333 44.3337 38.1843 44.3337 38V37H51.667V38C51.667 38.1843 51.816 38.3333 52.0003 38.3333H54.3337C54.518 38.3333 54.667 38.1843 54.667 38V37H56.667V40H39.3337V37ZM39.3337 54.3333V40.6667H56.667V54.3333H39.3337Z" fill="white"/>
<path d="M50.667 42.6667H48.3337H47.667H45.3337H44.667H41.667V45.6667V46.3333V48.6667V49.3333V52.3333H44.667H45.3337H47.667H48.3337H50.667H51.3337H54.3337V49.3333V48.6667V46.3333V45.6667V42.6667H51.3337H50.667ZM48.3337 43.3333H50.667V45.6667H48.3337V43.3333ZM50.667 48.6667H48.3337V46.3333H50.667V48.6667ZM45.3337 46.3333H47.667V48.6667H45.3337V46.3333ZM45.3337 43.3333H47.667V45.6667H45.3337V43.3333ZM42.3337 43.3333H44.667V45.6667H42.3337V43.3333ZM42.3337 46.3333H44.667V48.6667H42.3337V46.3333ZM44.667 51.6667H42.3337V49.3333H44.667V51.6667ZM47.667 51.6667H45.3337V49.3333H47.667V51.6667ZM50.667 51.6667H48.3337V49.3333H50.667V51.6667ZM53.667 51.6667H51.3337V49.3333H53.667V51.6667ZM53.667 48.6667H51.3337V46.3333H53.667V48.6667ZM53.667 43.3333V45.6667H51.3337V43.3333H53.667Z" fill="white"/>
</svg>
